<svg xmlns="http://www.w3.org/2000/svg" version="1.1" xmlns:xlink="http://www.w3.org/1999/xlink" width="200" height="200"><svg xmlns="http://www.w3.org/2000/svg" version="1.1" xmlns:xlink="http://www.w3.org/1999/xlink" width="200" height="200"><svg xmlns="http://www.w3.org/2000/svg" version="1.1" xmlns:xlink="http://www.w3.org/1999/xlink" viewBox="0 0 200 200"><rect width="200" height="200" fill="url('#gradient')"></rect><defs><linearGradient id="gradient" gradientTransform="rotate(145 0.5 0.5)"><stop offset="0%" stop-color="#ffffff"></stop><stop offset="100%" stop-color="#ffffff"></stop></linearGradient></defs><g><g fill="#ffdf06" transform="matrix(4.626746299662425,0,0,4.626746299662425,10.195677351159134,132.8955416748227)" stroke="#000000" stroke-width="0.4"><path d="M11.65-12.46L4.92-2.64L11.72-2.64L11.72 0L0.64 0L0.64-1.81L7.42-11.57L0.61-11.57L0.61-14.22L11.65-14.22L11.65-12.46ZM22.30 0L21.47-2.66L16.78-2.66L15.96 0L12.29 0L17.51-14.22L20.73-14.22L25.99 0L22.30 0ZM19.12-10.23L17.60-5.30L20.65-5.30L19.12-10.23ZM32.64-4.82L30.45-4.82L30.45 0L27.02 0L27.02-14.22L32.70-14.22Q34.33-14.22 35.58-13.62Q36.84-13.02 37.52-11.91Q38.21-10.80 38.21-9.39L38.21-9.39Q38.21-7.31 36.72-6.07Q35.23-4.82 32.64-4.82L32.64-4.82ZM30.45-11.57L30.45-7.47L32.70-7.47Q33.69-7.47 34.21-7.97Q34.74-8.47 34.74-9.38L34.74-9.38Q34.74-10.37 34.20-10.97Q33.66-11.56 32.73-11.57L32.73-11.57L30.45-11.57Z"></path></g></g></svg></svg><style>@media (prefers-color-scheme: light) { :root { filter: none; } }
@media (prefers-color-scheme: dark) { :root { filter: none; } }
</style></svg>